HIERARCHY
ROOT Hips
{
	OFFSET 0.000000 0.000000 0.000000
	CHANNELS 6 Xposition Yposition Zposition Xrotation Yrotation Zrotation
	JOINT LeftUpLeg_virtual
	{
		OFFSET 0.000000 0.000000 0.000000
		CHANNELS 3 Xrotation Yrotation Zrotation
		JOINT LeftUpLeg
		{
			OFFSET 11.394100 -6.187798 -0.413800
			CHANNELS 3 Xrotation Yrotation Zrotation
			JOINT LeftLeg
			{
				OFFSET 0.430247 -32.302673 3.732800
				CHANNELS 3 Xrotation Yrotation Zrotation
				JOINT LeftFoot
				{
					OFFSET -0.430247 -48.264931 -6.423300
					CHANNELS 3 Xrotation Yrotation Zrotation
					JOINT LeftToeBase
					{
						OFFSET 4.230900 -16.068199 23.438400
						CHANNELS 3 Xrotation Yrotation Zrotation
						JOINT LeftToe_End
						{
							OFFSET 4.510700 0.695400 19.974600
							CHANNELS 3 Xrotation Yrotation Zrotation
							End Site
							{
								OFFSET 0 0 0
							}
						}
					}
				}
			}
		}
	}
	JOINT RightUpLeg_virtual
	{
		OFFSET 0.000000 0.000000 0.000000
		CHANNELS 3 Xrotation Yrotation Zrotation
		JOINT RightUpLeg
		{
			OFFSET -11.333700 -6.187798 -0.413800
			CHANNELS 3 Xrotation Yrotation Zrotation
			JOINT RightLeg
			{
				OFFSET -0.430392 -32.302628 3.733000
				CHANNELS 3 Xrotation Yrotation Zrotation
				JOINT RightFoot
				{
					OFFSET 0.430392 -48.264973 -6.423500
					CHANNELS 3 Xrotation Yrotation Zrotation
					JOINT RightToeBase
					{
						OFFSET -4.230900 -16.068199 23.438400
						CHANNELS 3 Xrotation Yrotation Zrotation
						JOINT RightToe_End
						{
							OFFSET -4.510700 0.695400 19.974600
							CHANNELS 3 Xrotation Yrotation Zrotation
							End Site
							{
								OFFSET 0 0 0
							}
						}
					}
				}
			}
		}
	}
	JOINT Spine_virtual
	{
		OFFSET 0.000000 0.000000 0.000000
		CHANNELS 3 Xrotation Yrotation Zrotation
		JOINT Spine
		{
			OFFSET -0.002400 12.777504 0.315300
			CHANNELS 3 Xrotation Yrotation Zrotation
			JOINT Spine1
			{
				OFFSET -0.002067 5.816869 0.032633
				CHANNELS 3 Xrotation Yrotation Zrotation
				JOINT Spine1_split
				{
					OFFSET -0.002067 5.816869 0.032633
					CHANNELS 3 Xrotation Yrotation Zrotation
					JOINT Spine2
					{
						OFFSET -0.002067 5.816869 0.032633
						CHANNELS 3 Xrotation Yrotation Zrotation
						JOINT Neck_virtual
						{
							OFFSET 0.000000 0.000000 0.000000
							CHANNELS 3 Xrotation Yrotation Zrotation
							JOINT Neck
							{
								OFFSET -0.003700 21.199493 -0.826900
								CHANNELS 3 Xrotation Yrotation Zrotation
								JOINT Head
								{
									OFFSET 0.000000 20.442200 4.834800
									CHANNELS 3 Xrotation Yrotation Zrotation
									JOINT HeadTop_End
									{
										OFFSET 0.000000 34.668396 4.968400
										CHANNELS 3 Xrotation Yrotation Zrotation
										End Site
										{
											OFFSET 0 0 0
										}
									}
								}
							}
						}
						JOINT LeftShoulder_virtual
						{
							OFFSET 0.000000 0.000000 0.000000
							CHANNELS 3 Xrotation Yrotation Zrotation
							JOINT LeftShoulder
							{
								OFFSET 3.288150 8.794197 -1.372250
								CHANNELS 3 Xrotation Yrotation Zrotation
								JOINT LeftShoulder_split
								{
									OFFSET 3.288150 8.794197 -1.372250
									CHANNELS 3 Xrotation Yrotation Zrotation
									JOINT LeftArm
									{
										OFFSET 11.953299 -2.279007 -0.146200
										CHANNELS 3 Xrotation Yrotation Zrotation
										JOINT LeftForeArm
										{
											OFFSET 18.448900 0.000000 0.000000
											CHANNELS 3 Xrotation Yrotation Zrotation
											JOINT LeftHand
											{
												OFFSET 29.527798 0.000000 0.000000
												CHANNELS 3 Xrotation Yrotation Zrotation
												End Site
												{
													OFFSET 0 0 0
												}
											}
										}
									}
								}
							}
						}
						JOINT RightShoulder_virtual
						{
							OFFSET 0.000000 0.000000 0.000000
							CHANNELS 3 Xrotation Yrotation Zrotation
							JOINT RightShoulder
							{
								OFFSET -3.249400 8.794197 -1.372250
								CHANNELS 3 Xrotation Yrotation Zrotation
								JOINT RightShoulder_split
								{
									OFFSET -3.249400 8.794197 -1.372250
									CHANNELS 3 Xrotation Yrotation Zrotation
									JOINT RightArm
									{
										OFFSET -11.953299 -2.279007 -0.146200
										CHANNELS 3 Xrotation Yrotation Zrotation
										JOINT RightForeArm
										{
											OFFSET -18.448900 0.000000 0.000000
											CHANNELS 3 Xrotation Yrotation Zrotation
											JOINT RightHand
											{
												OFFSET -29.527802 0.000000 0.000000
												CHANNELS 3 Xrotation Yrotation Zrotation
												End Site
												{
													OFFSET 0 0 0
												}
											}
										}
									}
								}
							}
						}
					}
				}
			}
		}
	}
}
MOTION
Frames: 4
Frame Time: 0.03333333
3.291336 104.356377 -4.022900 0.000000 0.000000 0.000000 -0.539281 -0.632121 -2.421194 -38.933369 -3.009910 2.934408 49.839576 1.453527 0.558545 32.106547 -0.523470 11.937341 -14.555932 -1.258184 1.600431 0.000000 0.000000 0.000000 -0.790700 2.464979 -2.747538 -27.931698 -15.725056 3.289105 32.526344 3.565217 -2.572966 24.274921 -2.345540 -7.595438 -20.361576 0.729856 4.774675 0.000000 0.000000 0.000000 -5.658850 4.183750 -1.357566 6.139947 1.108442 -0.468577 -2.284871 -0.816486 1.766510 0.019214 1.354338 -0.732914 0.000000 0.000000 0.000000 -2.884854 -0.183999 1.478389 -3.053322 -2.559655 1.883590 2.946251 2.740096 2.533058 0.000000 0.000000 0.000000 -2.366032 0.016307 1.822100 0.354155 2.934262 -1.227866 1.737797 -1.428439 0.276428 1.616739 3.003391 -71.870099 23.432378 -14.734518 1.227947 0.000000 0.000000 0.000000 -1.684937 -0.121951 1.648865 0.812957 4.599202 5.910250 -3.352769 0.661972 -1.891849 -6.936246 6.878340 78.236641 11.944234 19.386121 -3.535223 0.000000 0.000000 0.000000 
3.112196 104.660706 -1.487232 0.000000 0.000000 0.000000 -0.835827 -1.481494 -2.401404 -41.026050 -1.807604 2.830718 43.581743 2.162375 0.429815 32.564976 -0.386106 13.473982 -14.075866 -1.303850 2.314050 0.000000 0.000000 0.000000 -0.079235 1.552317 -2.845605 -27.458356 -15.347341 3.225698 33.645078 3.953494 -2.548639 26.019749 -2.032263 -8.154685 -22.319166 0.212898 5.284539 0.000000 0.000000 0.000000 -4.678341 3.578936 -2.014807 6.187801 1.314595 -0.227483 -2.252695 -0.775384 1.738514 0.190461 0.828642 -0.486921 0.000000 0.000000 0.000000 -2.816561 -0.175525 1.471693 -3.015630 -2.295741 1.352155 3.321726 2.711680 2.633780 0.000000 0.000000 0.000000 -2.600629 0.067908 1.796034 0.441278 3.363121 -1.427015 1.047512 -1.918481 -0.145608 1.787276 3.111267 -71.513918 23.542646 -15.449633 1.466666 0.000000 0.000000 0.000000 -1.819673 -0.099845 1.683538 0.768763 4.609342 5.454976 -2.879193 0.877867 -1.996883 -7.808258 7.356353 78.052779 12.034716 19.302323 -3.770888 0.000000 0.000000 0.000000 
3.123642 105.141296 1.628704 0.000000 0.000000 0.000000 -0.903935 -2.018542 -2.387767 -43.120528 -0.375629 2.244367 33.440319 2.712110 1.072703 35.289689 -0.300039 12.614150 -14.919105 -1.247363 2.187930 0.000000 0.000000 0.000000 0.251655 0.332789 -2.838053 -25.717815 -15.359343 2.771958 34.819130 4.694778 -2.552735 26.402416 -0.706739 -9.270838 -26.107584 0.036374 5.374739 0.000000 0.000000 0.000000 -3.456499 2.739497 -2.668433 6.385045 1.512678 0.397672 -2.264094 -0.692714 1.740332 0.661958 0.432662 -0.234369 0.000000 0.000000 0.000000 -2.758704 -0.156569 1.496366 -3.228638 -1.676824 0.393330 3.710049 2.732449 2.376781 0.000000 0.000000 0.000000 -2.854359 0.155469 1.761132 0.554835 4.421430 -2.261964 -0.101162 -2.623017 -0.641501 2.256274 3.609151 -71.564338 24.075674 -15.965904 1.957080 0.000000 0.000000 0.000000 -1.910581 -0.073363 1.638445 0.775751 4.543610 4.625924 -2.457447 1.027513 -1.784012 -9.069666 8.904130 77.346271 11.981648 19.149798 -3.849185 0.000000 0.000000 0.000000 
3.302414 105.388344 4.861698 0.000000 0.000000 0.000000 -0.838788 -2.325747 -2.255798 -45.169858 1.178446 1.575229 22.281197 2.804763 2.166631 40.615119 -0.495830 9.413981 -18.722233 -1.115597 1.926793 0.000000 0.000000 0.000000 0.294890 -1.036133 -2.715819 -22.767841 -15.841218 1.983657 35.060693 5.729384 -2.520173 24.691262 1.209963 -10.916827 -29.887750 0.389857 5.095812 0.000000 0.000000 0.000000 -2.586369 1.915482 -3.223363 6.643062 1.635115 1.228575 -2.301281 -0.630575 1.803330 1.014213 0.199089 0.070764 0.000000 0.000000 0.000000 -2.735066 -0.172180 1.605149 -3.679732 -0.766266 -0.753804 4.050534 2.780918 1.841830 0.000000 0.000000 0.000000 -3.095975 0.213436 1.781020 0.713809 5.970516 -3.553497 -1.337532 -3.314487 -0.899228 3.134181 4.364611 -71.883411 24.821915 -16.020868 2.548925 0.000000 0.000000 0.000000 -2.008340 -0.107526 1.568662 0.844518 4.369771 3.481848 -2.119456 1.059431 -1.464817 -10.317749 10.895048 76.554318 11.771682 19.351101 -3.767671 0.000000 0.000000 0.000000 
